<svg ed:hSpacing="30" xmlns:xlink="http://www.w3.org/1999/xlink" xmlns:ev="http://www.w3.org/2001/xml-events" xmlns="http://www.w3.org/2000/svg" ed:vSpacing="30" id="page300000100" height="1138" width="1138" ed:name="Page-1" viewBox="0 0 1138 1138" xmlns:ed="https://www.edrawsoft.com/xml/2017/SVGExtensions/"><style type="text/css"><![CDATA[
g[ed\:togtopicid],g[ed\:hyperlink],g[ed\:comment],g[ed\:note] {cursor:pointer;}
g[id] {-moz-user-select: none;-ms-user-select: none;user-select: none;}
svg text::selection,svg tspan::selection{background-color: #4285f4;color: #ffffff;fill: #ffffff;}
.st35 {fill:#000000;font-family:Segoe UI;font-size:12pt}
.st34 {fill:#303030;font-family:Segoe UI;font-size:12pt}
.st36 {fill:#303030}
.st33 {fill:#ffffff;font-family:Segoe UI;font-size:14pt}
.st31 {fill:#ffffff;font-family:Segoe UI;font-size:18pt}
.st32 {font-size:14pt}
]]></style><defs><radialGradient r="353.6" id="rg6" cy="250" fy="250" gradientUnits="userSpaceOnUse" cx="250" fx="250"><stop offset="0.01" stop-color="#000000"/><stop offset="0.87" stop-color="#494949"/></radialGradient><linearGradient x2="177" id="lg16" y1="-6" gradientUnits="userSpaceOnUse" y2="236" x1="185"><stop offset="0.69" stop-color="#00b0f0"/><stop offset="0.95" stop-color="#ff5f5f"/></linearGradient><path d="M50,230C50,130.6,130.6,50,230,50C268.5,50,304.1,62.1,333.4,82.6" id="path16"/><linearGradient x2="523" id="lg17" y1="129" gradientUnits="userSpaceOnUse" y2="340" x1="234"><stop offset="0.2" stop-color="#00b0f0"/><stop offset="0.38" stop-color="#3ed23e"/></linearGradient><path d="M323.1,384.1C375.2,352.6,410,295.3,410,230C410,169.1,379.7,115.2,333.4,82.6L333.4,82.6" id="path17"/><linearGradient x2="353" id="lg18" y1="453" gradientUnits="userSpaceOnUse" y2="237" x1="-4"><stop offset="0.57" stop-color="#ff5f5f"/><stop offset="0.74" stop-color="#3ed23e"/></linearGradient><path d="M50,230C50,329.4,130.6,410,230,410C264.1,410,295.9,400.5,323.1,384.1L323.1,384.1" id="path18"/></defs><rect x="0" y="0" height="1138" fill="#ffffff" width="1138"/><g ed:layout="map" id="101" ed:height="250" transform="matrix(1,0,0,1,444,442)" ed:width="250" ed:topictype="mainidea"><path stroke-linejoin="round" d="M250,125C250,194,194,250,125,250C56,250,0,194,0,125C0,56,56,0,125,0C194,0,250,56,250,125z" fill="url(#rg6)" stroke="#868686" stroke-width="3"/><text class="st31"><tspan textLength="121" class="st32" style="white-space:pre" x="65" y="115.8">My journey in </tspan><tspan textLength="214" style="white-space:pre" x="17" y="147">High Energy Physics</tspan></text></g><g id="102" ed:height="460" transform="matrix(1,0,0,1,339,337)" ed:width="460" ed:parentid="101"><path d="M100,230L0,230C0,103,103,0,230,0C279.2,0,324.7,15.4,362.1,41.7L304.7,123.6C283.5,108.7,257.8,100,230,100C158.2,100,100,158.2,100,230z" fill="url(#lg16)"/><text class="st33"><textPath xlink:href="#path16"><tspan dy="7.5" x="138 147 152 162 171 182 189 194 205 216 225 233 238 247 ">Flavor Physics</tspan></textPath></text></g><g id="104" ed:height="460" transform="matrix(1,0,0,1,339,337)" ed:width="460" ed:parentid="101"><path d="M304.7,123.6L362.1,41.7C421.3,83.3,460,152.1,460,230C460,313.5,415.5,386.6,348.9,426.9L297.2,341.3C334.9,318.5,360,277.2,360,230C360,186,338.1,147.1,304.7,123.6z" fill="url(#lg17)"/><text class="st33"><textPath xlink:href="#path17"><tspan dy="7.5" x="131.8 143.8 154.8 162.8 178.8 189.8 194.8 205.8 216.8 ">Cosmology</tspan></textPath></text></g><g id="106" ed:height="460" transform="matrix(1,0,0,1,339,337)" ed:width="460" ed:parentid="101"><path d="M297.2,341.3L348.9,426.9C314.2,447.9,273.5,460,230,460C103,460,0,357,0,230L100,230C100,301.8,158.2,360,230,360C254.6,360,277.6,353.2,297.2,341.3z" fill="url(#lg18)"/><text class="st33"><textPath xlink:href="#path18"><tspan dy="7.5" x="125.8 138.8 148.8 159.8 166.8 177.8 188.8 193.8 204.8 215.8 224.8 232.8 237.8 246.8 ">Hadron Physics</tspan></textPath></text></g><g id="108" ed:height="1096" transform="matrix(1,0,0,1,21,19)" ed:width="1096" ed:parentid="104"><path d="M682.9,355.6L862.7,99.4C1003.8,198.5,1096,362.5,1096,548C1096,554.3,1095.9,560.6,1095.7,566.7L782.9,556C783,553.4,783,550.7,783,548C783,468.4,743.5,398.1,682.9,355.6z" fill="#fcf6e9"/><text class="st34" transform="matrix(0.89,-0.45,0.45,0.89,-72.19,440.04)"><tspan textLength="204" style="white-space:pre" x="794" y="380.125">Matter antimatter asymmetry</tspan></text></g><g id="112" ed:height="1096" transform="matrix(1,0,0,1,21,19)" ed:width="1096" ed:parentid="104"><path d="M782.9,556L1095.7,566.7C1089.2,757.9,985,924.2,831.3,1017.1L669.5,749.2C735.4,709.3,780.1,638,782.9,556z" fill="#fcf6e9"/><text class="st35" transform="matrix(0.86,0.51,-0.51,0.86,499.61,-345.66)"><tspan textLength="188" class="st36" style="white-space:pre" x="789" y="752.99">Non-standard cosmologies</tspan></text></g><g id="116" ed:height="1096" transform="matrix(1,0,0,1,21,19)" ed:width="1096" ed:parentid="106"><path d="M669.5,749.2L831.3,1017.1C748.7,1067.2,651.7,1096,548,1096C450.1,1096,358.2,1070.3,278.7,1025.3L432.5,752.7C466.6,772,506,783,548,783C592.5,783,634.1,770.6,669.5,749.2z" fill="#eaecfe"/><text class="st34" transform="matrix(0.01,1,-1,0.01,1484.95,371.81)"><tspan textLength="225" style="white-space:pre" x="437" y="946.257">Indirect detection of Dark Matter</tspan></text></g><g id="118" ed:height="1096" transform="matrix(1,0,0,1,21,19)" ed:width="1096" ed:parentid="106"><path d="M432.5,752.7L278.7,1025.3C112.3,931.2,0,752.7,0,548L313,548C313,635.8,361.1,712.4,432.5,752.7z" fill="#eaecfe"/><text class="st34" transform="matrix(0.86,-0.5,0.5,0.86,-347.25,207.57)"><tspan textLength="284" style="white-space:pre" x="65" y="752.221">Antiproton production XS measurements</tspan></text></g><g id="120" ed:height="1096" transform="matrix(1,0,0,1,21,19)" ed:width="1096" ed:parentid="102"><path d="M313,548L0,548C0,408.1,52.4,280.4,138.7,183.6L372.5,391.7C335.5,433.3,313,488,313,548z" fill="#e8f6f7"/><text class="st34" transform="matrix(0.93,0.36,-0.36,0.93,157.33,-38.05)"><tspan textLength="193" style="white-space:pre" x="84" y="415.514">Neutrino-nucleus scattering</tspan></text></g><g id="126" ed:height="1096" transform="matrix(1,0,0,1,21,19)" ed:width="1096" ed:parentid="102"><path d="M372.5,391.7L138.7,183.6C225.9,85.8,347.5,19.4,484.7,3.7L520.8,314.6C462,321.3,409.8,349.8,372.5,391.7z" fill="#e8f6f7"/><text class="st34" transform="matrix(0.46,0.89,-0.89,0.46,375.89,-217.85)"><tspan textLength="264" style="white-space:pre" x="232" y="207.463">Non-Standard Interaction of neutrinos</tspan></text></g><g id="130" ed:height="1096" transform="matrix(1,0,0,1,21,19)" ed:width="1096" ed:parentid="102"><path d="M520.8,314.6L484.7,3.7C505.4,1.2,526.6,0,548,0C665.1,0,773.7,36.7,862.7,99.4L682.9,355.6C644.8,328.8,598.2,313,548,313C538.8,313,529.7,313.5,520.8,314.6z" fill="#fcf6e9"/><text class="st35" transform="matrix(0.25,-0.97,0.97,0.25,322.7,751.51)"><tspan textLength="91" class="st36" style="white-space:pre" x="597" y="175.271">Leptogenesis</tspan></text></g></svg>